<svg width="25" height="29" viewBox="0 0 25 29" fill="none" xmlns="http://www.w3.org/2000/svg">
<path d="M20.2081 15.2183C20.1671 11.6896 23.2831 9.97021 23.4334 9.89322C21.6704 7.48091 18.9371 7.14729 17.9804 7.12163C15.6844 6.89066 13.4567 8.40477 12.295 8.40477C11.106 8.40477 9.30203 7.13446 7.36136 7.17295C4.86035 7.21145 2.52334 8.57158 1.25234 10.6759C-1.38534 14.9745 0.582672 21.2876 3.11101 24.7649C4.38202 26.4715 5.85802 28.3705 7.79869 28.2935C9.69837 28.2165 10.409 27.1644 12.6914 27.1644C14.96 27.1644 15.6161 28.2935 17.5977 28.255C19.6341 28.2294 20.9187 26.5485 22.1351 24.829C23.5974 22.8787 24.1851 20.9539 24.2124 20.8641C24.1441 20.8513 20.2491 19.4527 20.2081 15.2183Z" fill="white"/>
<path d="M16.4773 4.83758C17.5023 3.64425 18.1993 2.01464 17.9943 0.359375C16.5183 0.423533 14.6733 1.32174 13.6073 2.48941C12.6643 3.51594 11.8306 5.2097 12.0493 6.80081C13.703 6.9163 15.4113 6.01809 16.4773 4.83758Z" fill="white"/>
</svg>
