<svg width="103" height="21" viewBox="0 0 103 21" fill="none" xmlns="http://www.w3.org/2000/svg">
<path d="M11.1656 11.9949H4.70131L3.14332 16.3063H0.409996L6.53263 0.369629H9.37529L15.4979 16.3063H12.7099L11.1656 11.9949ZM5.37097 10.006H10.4959L7.96763 3.01291H7.89929L5.37097 10.006Z" fill="white"/>
<path d="M28.7407 10.4941C28.7407 14.0997 26.6771 16.4222 23.5748 16.4222C21.8119 16.4222 20.4179 15.678 19.6799 14.3948H19.6252V20.1433H17.0833V4.6814H19.5432V6.61895H19.5842C20.2949 5.3743 21.7982 4.56592 23.5202 4.56592C26.6771 4.56592 28.7407 6.88841 28.7407 10.4941ZM26.1305 10.4941C26.1305 8.1459 24.8321 6.59329 22.8642 6.59329C20.9235 6.59329 19.6116 8.17156 19.6116 10.4941C19.6116 12.8294 20.9235 14.4077 22.8642 14.4077C24.8321 14.4077 26.1305 12.8679 26.1305 10.4941Z" fill="white"/>
<path d="M42.3533 10.4941C42.3533 14.0997 40.2896 16.4222 37.1872 16.4222C35.4242 16.4222 34.0302 15.678 33.2922 14.3948H33.2376V20.1433H30.7092V4.6814H33.1692V6.61895H33.2102C33.9209 5.3743 35.4242 4.56592 37.1462 4.56592C40.2896 4.56592 42.3533 6.88841 42.3533 10.4941ZM39.7429 10.4941C39.7429 8.1459 38.4446 6.59329 36.4766 6.59329C34.5359 6.59329 33.2239 8.17156 33.2239 10.4941C33.2239 12.8294 34.5359 14.4077 36.4766 14.4077C38.4582 14.4077 39.7429 12.8679 39.7429 10.4941Z" fill="white"/>
<path d="M51.3597 11.8666C51.551 13.4448 53.1773 14.4842 55.4187 14.4842C57.5643 14.4842 59.095 13.4448 59.095 12.0205C59.095 10.7887 58.1656 10.0445 55.9653 9.53123L53.765 9.03081C50.649 8.32507 49.2003 6.95211 49.2003 4.73226C49.2003 1.98632 51.756 0.100098 55.3777 0.100098C58.9583 0.100098 61.4183 1.98632 61.5003 4.73226H58.931C58.7806 3.14116 57.373 2.1788 55.3367 2.1788C53.3003 2.1788 51.8927 3.15399 51.8927 4.56545C51.8927 5.69462 52.781 6.34903 54.9676 6.86228L56.84 7.29856C60.325 8.06844 61.7736 9.39009 61.7736 11.7126C61.7736 14.6895 59.2453 16.5629 55.2273 16.5629C51.469 16.5629 48.927 14.7408 48.763 11.8537H51.3597V11.8666Z" fill="white"/>
<path d="M67.2663 1.93457V4.6805H69.6169V6.56673H67.2663V12.9696C67.2663 13.9705 67.731 14.4324 68.7696 14.4324C69.0293 14.4324 69.4393 14.3939 69.6033 14.3811V16.2545C69.3163 16.3186 68.756 16.37 68.1956 16.37C65.6947 16.37 64.7107 15.4846 64.7107 13.2391V6.57956H62.9067V4.69334H64.7107V1.93457H67.2663Z" fill="white"/>
<path d="M70.9708 10.4933C70.9708 6.83637 73.2668 4.53955 76.8338 4.53955C80.4145 4.53955 82.6969 6.83637 82.6969 10.4933C82.6969 14.1631 80.4282 16.4471 76.8338 16.4471C73.2531 16.4471 70.9708 14.1631 70.9708 10.4933ZM80.1275 10.4933C80.1275 7.9912 78.8975 6.50276 76.8475 6.50276C74.7975 6.50276 73.5675 7.9912 73.5675 10.4933C73.5675 13.0083 74.7838 14.4839 76.8475 14.4839C78.9112 14.4839 80.1275 13.0083 80.1275 10.4933Z" fill="white"/>
<path d="M84.8148 4.68105H87.2339V6.65708H87.2885C87.6712 5.34828 88.8055 4.55273 90.2679 4.55273C90.6369 4.55273 90.9375 4.60406 91.1425 4.64255V6.87522C90.9375 6.79823 90.5002 6.73407 90.0082 6.73407C88.3682 6.73407 87.3569 7.77342 87.3569 9.40301V16.2935H84.8148V4.68105Z" fill="white"/>
<path d="M102.84 12.8928C102.499 14.9972 100.312 16.4471 97.5105 16.4471C93.9162 16.4471 91.6749 14.1888 91.6749 10.5447C91.6749 6.90053 93.9162 4.53955 97.4012 4.53955C100.818 4.53955 102.977 6.74655 102.977 10.2752V11.0964H94.2442V11.2375C94.2442 13.2264 95.5699 14.5224 97.5789 14.5224C98.9865 14.5224 100.094 13.8937 100.435 12.8928H102.84ZM94.2579 9.41549H100.449C100.394 7.63192 99.1779 6.46426 97.4149 6.46426C95.6656 6.47709 94.3946 7.67041 94.2579 9.41549Z" fill="white"/>
</svg>
