<svg width="96" height="9" viewBox="0 0 96 9" fill="none" xmlns="http://www.w3.org/2000/svg">
<path d="M3.70083 1.20215C6.11986 1.20215 7.54121 2.60078 7.54121 5.00027C7.54121 7.45109 6.13353 8.84973 3.70083 8.84973H0.748779V1.20215H3.70083ZM2.0198 7.77188H3.55049C5.25885 7.77188 6.24286 6.77102 6.24286 5.01311C6.24286 3.28085 5.24518 2.28 3.55049 2.28H2.0198V7.77188Z" fill="white"/>
<path d="M8.96265 5.96304C8.96265 4.10246 10.0696 2.96045 11.86 2.96045C13.6503 2.96045 14.7573 4.08963 14.7573 5.96304C14.7573 7.83646 13.6503 8.96564 11.86 8.96564C10.0696 8.96564 8.96265 7.83646 8.96265 5.96304ZM13.5137 5.96304C13.5137 4.70555 12.9123 3.97415 11.86 3.97415C10.8076 3.97415 10.2063 4.70555 10.2063 5.96304C10.2063 7.22054 10.794 7.95194 11.86 7.95194C12.926 7.95194 13.5137 7.22054 13.5137 5.96304Z" fill="white"/>
<path d="M22.4788 8.86254H21.2214L19.9505 4.60249H19.8548L18.5838 8.86254H17.3402L15.6455 3.08838H16.8755L17.9825 7.5024H18.0781L19.3491 3.08838H20.5108L21.7818 7.5024H21.8774L22.9708 3.08838H24.1871L22.4788 8.86254Z" fill="white"/>
<path d="M25.5952 3.0758H26.7706V3.99967H26.8662C27.1669 3.35809 27.7819 2.97314 28.6976 2.97314C30.0643 2.97314 30.8296 3.74304 30.8296 5.11601V8.86282H29.6133V5.41114C29.6133 4.48727 29.1896 4.02533 28.2876 4.02533C27.3856 4.02533 26.8116 4.58992 26.8116 5.48813V8.86282H25.5952V3.0758V3.0758Z" fill="white"/>
<path d="M32.7563 0.830078H33.9728V8.86258H32.7563V0.830078Z" fill="white"/>
<path d="M35.668 5.96304C35.668 4.10246 36.7749 2.96045 38.5652 2.96045C40.3555 2.96045 41.4625 4.08963 41.4625 5.96304C41.4625 7.83646 40.3555 8.96564 38.5652 8.96564C36.7613 8.96564 35.668 7.83646 35.668 5.96304ZM40.2189 5.96304C40.2189 4.70555 39.6175 3.97415 38.5652 3.97415C37.5129 3.97415 36.9116 4.70555 36.9116 5.96304C36.9116 7.22054 37.4993 7.95194 38.5652 7.95194C39.6175 7.95194 40.2189 7.22054 40.2189 5.96304Z" fill="white"/>
<path d="M42.7468 7.2204C42.7468 6.18104 43.5668 5.57796 45.0291 5.50097L46.6965 5.41115V4.91071C46.6965 4.2948 46.2728 3.96118 45.4391 3.96118C44.7558 3.96118 44.2911 4.19215 44.1545 4.60276H42.9792C43.1022 3.61472 44.0998 2.97314 45.4938 2.97314C47.0381 2.97314 47.9128 3.69171 47.9128 4.91071V8.86284H46.7375V8.05445H46.6418C46.2728 8.63187 45.6031 8.96549 44.7968 8.96549C43.6078 8.95266 42.7468 8.28542 42.7468 7.2204ZM46.7101 6.7328V6.2452L45.2068 6.33502C44.3595 6.38634 43.9768 6.65581 43.9768 7.16907C43.9768 7.69517 44.4551 7.99029 45.1111 7.99029C46.0268 7.99029 46.7101 7.45137 46.7101 6.7328Z" fill="white"/>
<path d="M49.5112 5.96268C49.5112 4.14061 50.5089 2.98577 52.0669 2.98577C52.9142 2.98577 53.6249 3.35789 53.9529 3.99946H54.0485V0.830078H55.2649V8.86261H54.0895V7.95157H53.9939C53.6249 8.58031 52.9142 8.96526 52.0669 8.96526C50.4952 8.95243 49.5112 7.79759 49.5112 5.96268ZM50.7686 5.96268C50.7686 7.19451 51.3836 7.92591 52.4086 7.92591C53.4335 7.92591 54.0622 7.18168 54.0622 5.96268C54.0622 4.75652 53.4199 3.99946 52.4086 3.99946C51.3836 4.01229 50.7686 4.75652 50.7686 5.96268Z" fill="white"/>
<path d="M60.2805 5.96304C60.2805 4.10246 61.3875 2.96045 63.1779 2.96045C64.9682 2.96045 66.0752 4.08963 66.0752 5.96304C66.0752 7.83646 64.9682 8.96564 63.1779 8.96564C61.3875 8.96564 60.2805 7.83646 60.2805 5.96304ZM64.8315 5.96304C64.8315 4.70555 64.2302 3.97415 63.1779 3.97415C62.1255 3.97415 61.5242 4.70555 61.5242 5.96304C61.5242 7.22054 62.1118 7.95194 63.1779 7.95194C64.2302 7.95194 64.8315 7.22054 64.8315 5.96304Z" fill="white"/>
<path d="M67.7156 3.0758H68.8909V3.99967H68.9866C69.2873 3.35809 69.9023 2.97314 70.818 2.97314C72.1846 2.97314 72.95 3.74304 72.95 5.11601V8.86282H71.7336V5.41114C71.7336 4.48727 71.31 4.02533 70.4079 4.02533C69.5059 4.02533 68.9319 4.58992 68.9319 5.48813V8.86282H67.7156V3.0758Z" fill="white"/>
<path d="M79.81 1.63818V3.10096H81.1493V4.06332H79.81V7.0402C79.81 7.64328 80.0697 7.91274 80.6847 7.91274C80.876 7.91274 80.9717 7.89991 81.1493 7.88707V8.8366C80.958 8.86226 80.7256 8.90076 80.4933 8.90076C79.1403 8.90076 78.6073 8.45166 78.6073 7.33533V4.07615H77.637V3.1138H78.6073V1.63818H79.81Z" fill="white"/>
<path d="M82.7896 0.830078H83.9922V4.01229H84.0879C84.3886 3.37071 85.0309 2.97294 85.9603 2.97294C87.2723 2.97294 88.0786 3.75566 88.0786 5.12862V8.86258H86.8623V5.41092C86.8623 4.48705 86.4113 4.02512 85.5503 4.02512C84.5526 4.02512 84.0059 4.61536 84.0059 5.48791V8.86258H82.7896V0.830078Z" fill="white"/>
<path d="M95.1713 7.29739C94.898 8.33675 93.914 8.96549 92.5064 8.96549C90.7434 8.96549 89.6638 7.83631 89.6638 5.98857C89.6638 4.14082 90.7708 2.97314 92.5064 2.97314C94.2147 2.97314 95.2533 4.07666 95.2533 5.88591V6.28369H90.9074V6.34785C90.9484 7.36155 91.5771 8.00312 92.5474 8.00312C93.2854 8.00312 93.791 7.75932 94.0097 7.29739H95.1713ZM90.9074 5.43681H94.0097C93.9823 4.52577 93.3947 3.93551 92.4927 3.93551C91.5908 3.93551 90.9758 4.5386 90.9074 5.43681Z" fill="white"/>
</svg>
