<svg width="95" height="9" viewBox="0 0 95 9" fill="none" xmlns="http://www.w3.org/2000/svg">
<path d="M3.05605 0.37207C5.47509 0.37207 6.89644 1.7707 6.89644 4.1702C6.89644 6.62101 5.48875 8.01965 3.05605 8.01965H0.104004V0.37207H3.05605ZM1.37502 6.9418H2.90572C4.61407 6.9418 5.59808 5.94094 5.59808 4.18303C5.59808 2.45077 4.60041 1.44992 2.90572 1.44992H1.37502V6.9418Z" fill="white"/>
<path d="M8.31787 5.13297C8.31787 3.27238 9.42487 2.13037 11.2152 2.13037C13.0055 2.13037 14.1125 3.25955 14.1125 5.13297C14.1125 7.00638 13.0055 8.13556 11.2152 8.13556C9.42487 8.13556 8.31787 7.00638 8.31787 5.13297ZM12.8689 5.13297C12.8689 3.87547 12.2675 3.14407 11.2152 3.14407C10.1629 3.14407 9.56154 3.87547 9.56154 5.13297C9.56154 6.39046 10.1492 7.12187 11.2152 7.12187C12.2812 7.12187 12.8689 6.39046 12.8689 5.13297Z" fill="white"/>
<path d="M21.8339 8.03246H20.5766L19.3056 3.77241H19.21L17.939 8.03246H16.6953L15.0007 2.2583H16.2307L17.3377 6.67232H17.4333L18.7043 2.2583H19.866L21.137 6.67232H21.2326L22.3259 2.2583H23.5423L21.8339 8.03246Z" fill="white"/>
<path d="M24.9503 2.24547H26.1257V3.16935H26.2214C26.522 2.52777 27.137 2.14282 28.0527 2.14282C29.4194 2.14282 30.1847 2.91271 30.1847 4.28569V8.0325H28.9684V4.58081C28.9684 3.65694 28.5447 3.19501 27.6427 3.19501C26.7407 3.19501 26.1667 3.7596 26.1667 4.6578V8.0325H24.9503V2.24547Z" fill="white"/>
<path d="M32.1116 0H33.328V8.03251H32.1116V0Z" fill="white"/>
<path d="M35.0231 5.13297C35.0231 3.27238 36.1301 2.13037 37.9204 2.13037C39.7107 2.13037 40.8177 3.25955 40.8177 5.13297C40.8177 7.00638 39.7107 8.13556 37.9204 8.13556C36.1165 8.13556 35.0231 7.00638 35.0231 5.13297ZM39.574 5.13297C39.574 3.87547 38.9727 3.14407 37.9204 3.14407C36.8681 3.14407 36.2668 3.87547 36.2668 5.13297C36.2668 6.39046 36.8544 7.12187 37.9204 7.12187C38.9727 7.12187 39.574 6.39046 39.574 5.13297Z" fill="white"/>
<path d="M42.1021 6.39008C42.1021 5.35072 42.9221 4.74763 44.3844 4.67064L46.0517 4.58082V4.08039C46.0517 3.46448 45.628 3.13085 44.7944 3.13085C44.111 3.13085 43.6464 3.36182 43.5097 3.77243H42.3344C42.4574 2.7844 43.4551 2.14282 44.849 2.14282C46.3934 2.14282 47.268 2.86139 47.268 4.08039V8.03252H46.0927V7.22413H45.997C45.628 7.80155 44.9584 8.13517 44.152 8.13517C42.9631 8.12234 42.1021 7.4551 42.1021 6.39008ZM46.0654 5.90248V5.41488L44.562 5.5047C43.7147 5.55602 43.3321 5.82549 43.3321 6.33875C43.3321 6.86484 43.8104 7.15997 44.4664 7.15997C45.382 7.15997 46.0654 6.62104 46.0654 5.90248Z" fill="white"/>
<path d="M48.8665 5.13261C48.8665 3.31053 49.8641 2.15569 51.4221 2.15569C52.2695 2.15569 52.9801 2.52781 53.3081 3.16938H53.4038V0H54.6201V8.03253H53.4448V7.12149H53.3491C52.9801 7.75023 52.2695 8.13518 51.4221 8.13518C49.8505 8.12235 48.8665 6.96751 48.8665 5.13261ZM50.1238 5.13261C50.1238 6.36443 50.7388 7.09583 51.7638 7.09583C52.7888 7.09583 53.4175 6.3516 53.4175 5.13261C53.4175 3.92644 52.7751 3.16938 51.7638 3.16938C50.7388 3.18222 50.1238 3.92644 50.1238 5.13261Z" fill="white"/>
<path d="M59.6358 5.13297C59.6358 3.27238 60.7428 2.13037 62.5332 2.13037C64.3235 2.13037 65.4305 3.25955 65.4305 5.13297C65.4305 7.00638 64.3235 8.13556 62.5332 8.13556C60.7428 8.13556 59.6358 7.00638 59.6358 5.13297ZM64.1868 5.13297C64.1868 3.87547 63.5855 3.14407 62.5332 3.14407C61.4808 3.14407 60.8795 3.87547 60.8795 5.13297C60.8795 6.39046 61.4671 7.12187 62.5332 7.12187C63.5855 7.12187 64.1868 6.39046 64.1868 5.13297Z" fill="white"/>
<path d="M67.0708 2.24547H68.2461V3.16935H68.3418C68.6425 2.52777 69.2575 2.14282 70.1732 2.14282C71.5399 2.14282 72.3052 2.91271 72.3052 4.28569V8.0325H71.0889V4.58081C71.0889 3.65694 70.6652 3.19501 69.7632 3.19501C68.8612 3.19501 68.2871 3.7596 68.2871 4.6578V8.0325H67.0708V2.24547Z" fill="white"/>
<path d="M79.1653 0.808105V2.27089H80.5046V3.23324H79.1653V6.21012C79.1653 6.8132 79.425 7.08266 80.04 7.08266C80.2313 7.08266 80.327 7.06983 80.5046 7.057V8.00652C80.3133 8.03218 80.081 8.07068 79.8486 8.07068C78.4956 8.07068 77.9626 7.62158 77.9626 6.50525V3.24607H76.9923V2.28372H77.9626V0.808105H79.1653Z" fill="white"/>
<path d="M82.1448 0H83.3475V3.18221H83.4431C83.7438 2.54063 84.3861 2.14286 85.3155 2.14286C86.6275 2.14286 87.4338 2.92558 87.4338 4.29855V8.03251H86.2175V4.58084C86.2175 3.65697 85.7665 3.19504 84.9055 3.19504C83.9078 3.19504 83.3611 3.78529 83.3611 4.65783V8.03251H82.1448V0Z" fill="white"/>
<path d="M94.5264 6.46706C94.2531 7.50642 93.2691 8.13517 91.8615 8.13517C90.0986 8.13517 89.019 7.00599 89.019 5.15824C89.019 3.3105 90.1259 2.14282 91.8615 2.14282C93.5698 2.14282 94.6084 3.24634 94.6084 5.05559V5.45337H90.2626V5.51753C90.3036 6.53122 90.9322 7.1728 91.9025 7.1728C92.6405 7.1728 93.1462 6.929 93.3648 6.46706H94.5264ZM90.2626 4.60649H93.3648C93.3375 3.69544 92.7498 3.10519 91.8479 3.10519C90.9459 3.10519 90.3309 3.70828 90.2626 4.60649Z" fill="white"/>
</svg>
