<svg width="103" height="21" viewBox="0 0 103 21" fill="none" xmlns="http://www.w3.org/2000/svg">
<path d="M10.8101 12.825H4.34576L2.78776 17.1364H0.0544434L6.17708 1.19971H9.01974L15.1424 17.1364H12.3544L10.8101 12.825ZM5.01542 10.8361H10.1404L7.61207 3.84298H7.54374L5.01542 10.8361Z" fill="white"/>
<path d="M28.3853 11.3241C28.3853 14.9298 26.3216 17.2523 23.2194 17.2523C21.4564 17.2523 20.0624 16.5081 19.3244 15.2249H19.2697V20.9734H16.7278V5.51148H19.1877V7.44903H19.2287C19.9394 6.20438 21.4427 5.396 23.1647 5.396C26.3216 5.396 28.3853 7.71849 28.3853 11.3241ZM25.775 11.3241C25.775 8.97598 24.4767 7.42337 22.5087 7.42337C20.5681 7.42337 19.2561 9.00164 19.2561 11.3241C19.2561 13.6595 20.5681 15.2377 22.5087 15.2377C24.4767 15.2377 25.775 13.698 25.775 11.3241Z" fill="white"/>
<path d="M41.9978 11.3241C41.9978 14.9298 39.9341 17.2523 36.8318 17.2523C35.0688 17.2523 33.6748 16.5081 32.9368 15.2249H32.8821V20.9734H30.3538V5.51148H32.8138V7.44903H32.8548C33.5654 6.20438 35.0688 5.396 36.7908 5.396C39.9341 5.396 41.9978 7.71849 41.9978 11.3241ZM39.3874 11.3241C39.3874 8.97598 38.0891 7.42337 36.1211 7.42337C34.1804 7.42337 32.8684 9.00164 32.8684 11.3241C32.8684 13.6595 34.1804 15.2377 36.1211 15.2377C38.1028 15.2377 39.3874 13.698 39.3874 11.3241Z" fill="white"/>
<path d="M51.0041 12.6966C51.1955 14.2749 52.8218 15.3143 55.0631 15.3143C57.2088 15.3143 58.7395 14.2749 58.7395 12.8506C58.7395 11.6188 57.8101 10.8746 55.6098 10.3613L53.4095 9.86088C50.2935 9.15515 48.8448 7.78218 48.8448 5.56234C48.8448 2.8164 51.4005 0.930176 55.0221 0.930176C58.6028 0.930176 61.0628 2.8164 61.1448 5.56234H58.5755C58.4251 3.97123 57.0175 3.00887 54.9811 3.00887C52.9448 3.00887 51.5371 3.98407 51.5371 5.39553C51.5371 6.5247 52.4255 7.1791 54.6121 7.69236L56.4845 8.12863C59.9695 8.89852 61.4181 10.2202 61.4181 12.5427C61.4181 15.5196 58.8898 17.393 54.8718 17.393C51.1135 17.393 48.5715 15.5709 48.4075 12.6838H51.0041V12.6966Z" fill="white"/>
<path d="M66.9108 2.76465V5.51058H69.2615V7.39681H66.9108V13.7997C66.9108 14.8006 67.3755 15.2625 68.4141 15.2625C68.6738 15.2625 69.0838 15.224 69.2478 15.2112V17.0846C68.9608 17.1487 68.4005 17.2 67.8402 17.2C65.3392 17.2 64.3552 16.3147 64.3552 14.0692V7.40964H62.5513V5.52341H64.3552V2.76465H66.9108Z" fill="white"/>
<path d="M70.6152 11.3234C70.6152 7.66645 72.9113 5.36963 76.4783 5.36963C80.059 5.36963 82.3413 7.66645 82.3413 11.3234C82.3413 14.9932 80.0726 17.2772 76.4783 17.2772C72.8976 17.2772 70.6152 14.9932 70.6152 11.3234ZM79.772 11.3234C79.772 8.82128 78.542 7.33284 76.492 7.33284C74.4419 7.33284 73.2119 8.82128 73.2119 11.3234C73.2119 13.8384 74.4283 15.314 76.492 15.314C78.5556 15.314 79.772 13.8384 79.772 11.3234Z" fill="white"/>
<path d="M84.4592 5.51113H86.8782V7.48716H86.9329C87.3156 6.17836 88.4499 5.38281 89.9123 5.38281C90.2813 5.38281 90.5819 5.43414 90.7869 5.47263V7.7053C90.5819 7.62831 90.1446 7.56415 89.6526 7.56415C88.0126 7.56415 87.0012 8.6035 87.0012 10.2331V17.1236H84.4592V5.51113V5.51113Z" fill="white"/>
<path d="M102.485 13.7229C102.143 15.8272 99.9566 17.2772 97.155 17.2772C93.5607 17.2772 91.3193 15.0189 91.3193 11.3747C91.3193 7.73061 93.5607 5.36963 97.0456 5.36963C100.462 5.36963 102.622 7.57663 102.622 11.1053V11.9265H93.8886V12.0676C93.8886 14.0565 95.2143 15.3525 97.2233 15.3525C98.6309 15.3525 99.7379 14.7237 100.08 13.7229H102.485V13.7229ZM93.9023 10.2456H100.093C100.039 8.462 98.8223 7.29434 97.0593 7.29434C95.31 7.30717 94.039 8.50049 93.9023 10.2456Z" fill="white"/>
</svg>
