<svg width="55" height="9" viewBox="0 0 55 9" fill="none" xmlns="http://www.w3.org/2000/svg">
<path d="M9.30786 5.14061C9.30786 6.21846 8.96619 7.07817 8.28286 7.70691C7.51753 8.46397 6.5062 8.84891 5.2762 8.84891C4.08721 8.84891 3.08954 8.46397 2.25587 7.69408C1.42221 6.92419 1.01221 5.96183 1.01221 4.83266C1.01221 3.69066 1.42221 2.74113 2.25587 1.97124C3.08954 1.20135 4.08721 0.816406 5.2762 0.816406C5.86387 0.816406 6.4242 0.919058 6.9572 1.13719C7.4902 1.35533 7.91386 1.63762 8.24186 1.9969L7.51753 2.67697C6.97087 2.07389 6.23287 1.76594 5.2762 1.76594C4.4152 1.76594 3.66354 2.04823 3.03487 2.62564C2.40621 3.19023 2.09187 3.93446 2.09187 4.84549C2.09187 5.75653 2.40621 6.50075 3.03487 7.06534C3.66354 7.62992 4.4152 7.92505 5.2762 7.92505C6.19187 7.92505 6.9572 7.64275 7.5722 7.06534C7.96853 6.69322 8.20086 6.16713 8.25553 5.4999H5.2762V4.5632H9.2532C9.28053 4.7685 9.30786 4.96097 9.30786 5.14061Z" fill="white" stroke="white" stroke-width="0.256629" stroke-miterlimit="10"/>
<path d="M15.6079 1.93293H11.8768V4.3709H15.2389V5.29477H11.8768V7.73275H15.6079V8.68227H10.8245V0.983398H15.6079V1.93293Z" fill="white" stroke="white" stroke-width="0.256629" stroke-miterlimit="10"/>
<path d="M20.0493 8.68227H18.9969V1.93293H16.7009V0.983398H22.3316V1.93293H20.0356V8.68227H20.0493Z" fill="white" stroke="white" stroke-width="0.256629" stroke-miterlimit="10"/>
<path d="M26.4177 8.68227V0.983398H27.47V8.68227H26.4177Z" fill="white" stroke="white" stroke-width="0.256629" stroke-miterlimit="10"/>
<path d="M32.145 8.68227H31.0926V1.93293H28.7966V0.983398H34.4273V1.93293H32.1313V8.68227H32.145Z" fill="white" stroke="white" stroke-width="0.256629" stroke-miterlimit="10"/>
<path d="M45.1002 7.68076C44.2939 8.46348 43.2962 8.84842 42.0936 8.84842C40.8909 8.84842 39.8933 8.46348 39.0869 7.68076C38.2806 6.89804 37.8843 5.94851 37.8843 4.83217C37.8843 3.71583 38.2806 2.75347 39.0869 1.98358C39.8933 1.20086 40.8909 0.815918 42.0936 0.815918C43.2826 0.815918 44.2802 1.20086 45.1002 1.98358C45.9065 2.7663 46.3165 3.71583 46.3165 4.83217C46.3028 5.96134 45.9065 6.91087 45.1002 7.68076ZM39.8659 7.03919C40.4672 7.6166 41.2189 7.8989 42.0936 7.8989C42.9682 7.8989 43.7199 7.6166 44.3212 7.03919C44.9225 6.46177 45.2369 5.73037 45.2369 4.83217C45.2369 3.93397 44.9362 3.20257 44.3212 2.62516C43.7199 2.04774 42.9682 1.75262 42.0936 1.75262C41.2189 1.75262 40.4672 2.03491 39.8659 2.61233C39.2646 3.20257 38.9503 3.93397 38.9503 4.83217C38.9503 5.73037 39.2646 6.46177 39.8659 7.03919Z" fill="white" stroke="white" stroke-width="0.256629" stroke-miterlimit="10"/>
<path d="M47.7932 8.68227V0.983398H49.0778L53.0684 6.97569H53.1094L53.0684 5.48724V0.983398H54.1208V8.68227H53.0275L48.8592 2.40769H48.8182L48.8592 3.89614V8.68227H47.7932Z" fill="white" stroke="white" stroke-width="0.256629" stroke-miterlimit="10"/>
</svg>
