<svg width="117" height="23" viewBox="0 0 117 23" fill="none" xmlns="http://www.w3.org/2000/svg">
<path d="M37.6252 6.90873C34.4135 6.90873 31.7895 9.20556 31.7895 12.3621C31.7895 15.5058 34.4135 17.8155 37.6252 17.8155C40.8368 17.8155 43.4608 15.5058 43.4608 12.3621C43.4608 9.20556 40.8368 6.90873 37.6252 6.90873ZM37.6252 15.6726C35.8622 15.6726 34.3452 14.3125 34.3452 12.3621C34.3452 10.3989 35.8622 9.05158 37.6252 9.05158C39.3882 9.05158 40.9052 10.3989 40.9052 12.3621C40.9052 14.3125 39.3745 15.6726 37.6252 15.6726ZM24.8879 6.90873C21.6762 6.90873 19.0522 9.20556 19.0522 12.3621C19.0522 15.5058 21.6762 17.8155 24.8879 17.8155C28.0995 17.8155 30.7235 15.5058 30.7235 12.3621C30.7235 9.20556 28.0995 6.90873 24.8879 6.90873ZM24.8879 15.6726C23.1249 15.6726 21.6079 14.3125 21.6079 12.3621C21.6079 10.3989 23.1249 9.05158 24.8879 9.05158C26.6509 9.05158 28.1679 10.3989 28.1679 12.3621C28.1679 14.3125 26.6509 15.6726 24.8879 15.6726ZM9.74526 8.58965V10.8993H15.6492C15.4716 12.1953 15.0069 13.1577 14.3099 13.8121C13.4489 14.6204 12.1096 15.5058 9.75893 15.5058C6.1236 15.5058 3.28094 12.7599 3.28094 9.34671C3.28094 5.93353 6.1236 3.1876 9.75893 3.1876C11.7133 3.1876 13.1482 3.90616 14.2006 4.84286L15.9362 3.21326C14.4602 1.89162 12.5059 0.87793 9.74526 0.87793C4.77061 0.87793 0.588623 4.67605 0.588623 9.35954C0.588623 14.0302 4.77061 17.8411 9.74526 17.8411C12.4376 17.8411 14.4602 17.0199 16.0456 15.4673C17.6719 13.9404 18.1776 11.7847 18.1776 10.0524C18.1776 9.51352 18.1366 9.01309 18.0409 8.60248H9.74526V8.58965ZM71.6687 10.3861C71.1904 9.16707 69.7144 6.90873 66.6941 6.90873C63.7011 6.90873 61.2138 9.11574 61.2138 12.3621C61.2138 15.416 63.6738 17.8155 66.9811 17.8155C69.6461 17.8155 71.1904 16.2885 71.8191 15.4032L69.8374 14.1585C69.1814 15.0695 68.2794 15.6726 66.9811 15.6726C65.6828 15.6726 64.7534 15.108 64.1658 14.0174L71.9421 11.002L71.6687 10.3861ZM63.7421 12.2081C63.6738 10.1038 65.4778 9.02592 66.7761 9.02592C67.7874 9.02592 68.6484 9.50068 68.9354 10.1808L63.7421 12.2081ZM57.4281 17.4947H59.9838V1.45535H57.4281V17.4947ZM53.2461 8.12772H53.1505C52.5765 7.48614 51.4831 6.90873 50.0891 6.90873C47.1781 6.90873 44.5132 9.30821 44.5132 12.3878C44.5132 15.4417 47.1781 17.8283 50.0891 17.8283C51.4695 17.8283 52.5765 17.2509 53.1505 16.5837H53.2325V17.3664C53.2325 19.4579 52.0435 20.5743 50.1301 20.5743C48.5721 20.5743 47.6018 19.5221 47.2055 18.6367L44.9778 19.5092C45.6201 20.9592 47.3148 22.7299 50.1301 22.7299C53.1231 22.7299 55.6515 21.0747 55.6515 17.0456V7.24235H53.2325V8.12772H53.2461ZM50.3078 15.6726C48.5448 15.6726 47.0688 14.2868 47.0688 12.3878C47.0688 10.463 48.5448 9.06442 50.3078 9.06442C52.0435 9.06442 53.4101 10.4759 53.4101 12.3878C53.4238 14.2868 52.0571 15.6726 50.3078 15.6726ZM83.6407 1.45535H77.5317V17.4947H80.0874V11.4126H83.6544C86.4834 11.4126 89.2577 9.48785 89.2577 6.43396C89.2577 3.38007 86.456 1.45535 83.6407 1.45535ZM83.6954 9.1799H80.0737V3.67519H83.6954C85.6087 3.67519 86.6884 5.16365 86.6884 6.42113C86.6884 7.67862 85.6087 9.1799 83.6954 9.1799ZM99.4666 6.88306C97.6217 6.88306 95.7083 7.65295 94.9157 9.33388L97.1843 10.2192C97.6627 9.33388 98.5646 9.03875 99.5076 9.03875C100.833 9.03875 102.173 9.78298 102.186 11.1046V11.2714C101.722 11.0276 100.738 10.6555 99.5213 10.6555C97.075 10.6555 94.6013 11.913 94.6013 14.2612C94.6013 16.404 96.5967 17.7898 98.838 17.7898C100.546 17.7898 101.503 17.0713 102.091 16.2244H102.173V17.469H104.633V11.3228C104.646 8.47417 102.378 6.88306 99.4666 6.88306ZM99.1523 15.6726C98.3187 15.6726 97.157 15.2749 97.157 14.3125C97.157 13.0807 98.6057 12.6059 99.863 12.6059C100.984 12.6059 101.517 12.8369 102.186 13.1448C101.995 14.6204 100.628 15.6726 99.1523 15.6726ZM113.612 7.22951L110.687 14.1842H110.605L107.571 7.22951H104.824L109.375 16.9558L106.778 22.3578H109.443L116.454 7.22951H113.612ZM90.6517 17.4947H93.2073V1.45535H90.6517V17.4947Z" fill="white"/>
</svg>
