<svg width="117" height="22" viewBox="0 0 117 22" fill="none" xmlns="http://www.w3.org/2000/svg">
<path d="M37.498 6.09281C34.2863 6.09281 31.6623 8.38964 31.6623 11.5462C31.6623 14.6899 34.2863 16.9996 37.498 16.9996C40.7096 16.9996 43.3336 14.6899 43.3336 11.5462C43.3336 8.38964 40.7096 6.09281 37.498 6.09281ZM37.498 14.8567C35.735 14.8567 34.218 13.4966 34.218 11.5462C34.218 9.58297 35.735 8.23567 37.498 8.23567C39.261 8.23567 40.778 9.58297 40.778 11.5462C40.778 13.4966 39.2473 14.8567 37.498 14.8567ZM24.7607 6.09281C21.549 6.09281 18.925 8.38964 18.925 11.5462C18.925 14.6899 21.549 16.9996 24.7607 16.9996C27.9723 16.9996 30.5963 14.6899 30.5963 11.5462C30.5963 8.38964 27.9723 6.09281 24.7607 6.09281ZM24.7607 14.8567C22.9977 14.8567 21.4807 13.4966 21.4807 11.5462C21.4807 9.58297 22.9977 8.23567 24.7607 8.23567C26.5237 8.23567 28.0407 9.58297 28.0407 11.5462C28.0407 13.4966 26.5237 14.8567 24.7607 14.8567ZM9.61806 7.77373V10.0834H15.522C15.3444 11.3794 14.8797 12.3417 14.1827 12.9961C13.3217 13.8045 11.9824 14.6899 9.63173 14.6899C5.99641 14.6899 3.15375 11.944 3.15375 8.53079C3.15375 5.11762 5.99641 2.37168 9.63173 2.37168C11.5861 2.37168 13.0211 3.09024 14.0734 4.02694L15.809 2.39734C14.333 1.0757 12.3787 0.0620117 9.61806 0.0620117C4.64341 0.0620117 0.461426 3.86013 0.461426 8.54362C0.461426 13.2143 4.64341 17.0252 9.61806 17.0252C12.3104 17.0252 14.333 16.204 15.9184 14.6514C17.5447 13.1245 18.0504 10.9688 18.0504 9.23652C18.0504 8.6976 18.0094 8.19717 17.9137 7.78656H9.61806V7.77373ZM71.5415 9.57014C71.0632 8.35115 69.5872 6.09281 66.5669 6.09281C63.5739 6.09281 61.0866 8.29982 61.0866 11.5462C61.0866 14.6001 63.5466 16.9996 66.8539 16.9996C69.5189 16.9996 71.0632 15.4726 71.6919 14.5872L69.7102 13.3426C69.0542 14.2536 68.1522 14.8567 66.8539 14.8567C65.5556 14.8567 64.6262 14.2921 64.0386 13.2015L71.8149 10.1861L71.5415 9.57014ZM63.6149 11.3922C63.5466 9.28785 65.3506 8.21 66.6489 8.21C67.6602 8.21 68.5212 8.68477 68.8082 9.36483L63.6149 11.3922ZM57.3009 16.6788H59.8566V0.639429H57.3009V16.6788ZM53.1189 7.3118H53.0233C52.4493 6.67023 51.3559 6.09281 49.9619 6.09281C47.0509 6.09281 44.386 8.4923 44.386 11.5719C44.386 14.6257 47.0509 17.0124 49.9619 17.0124C51.3423 17.0124 52.4493 16.435 53.0233 15.7677H53.1053V16.5505C53.1053 18.642 51.9163 19.7583 50.0029 19.7583C48.4449 19.7583 47.4746 18.7062 47.0783 17.8208L44.8506 18.6933C45.4929 20.1433 47.1876 21.914 50.0029 21.914C52.9959 21.914 55.5243 20.2588 55.5243 16.2297V6.42643H53.1053V7.3118H53.1189ZM50.1806 14.8567C48.4176 14.8567 46.9416 13.4709 46.9416 11.5719C46.9416 9.64713 48.4176 8.2485 50.1806 8.2485C51.9163 8.2485 53.2829 9.65996 53.2829 11.5719C53.2966 13.4709 51.9299 14.8567 50.1806 14.8567ZM83.5135 0.639429H77.4045V16.6788H79.9602V10.5967H83.5272C86.3562 10.5967 89.1305 8.67194 89.1305 5.61804C89.1305 2.56415 86.3288 0.639429 83.5135 0.639429ZM83.5682 8.36398H79.9465V2.85927H83.5682C85.4815 2.85927 86.5612 4.34773 86.5612 5.60521C86.5612 6.8627 85.4815 8.36398 83.5682 8.36398ZM99.3394 6.06714C97.4945 6.06714 95.5811 6.83703 94.7885 8.51796L97.0571 9.40333C97.5355 8.51796 98.4374 8.22283 99.3804 8.22283C100.706 8.22283 102.045 8.96706 102.059 10.2887V10.4555C101.594 10.2117 100.61 9.8396 99.3941 9.8396C96.9478 9.8396 94.4741 11.0971 94.4741 13.4452C94.4741 15.5881 96.4695 16.9739 98.7108 16.9739C100.419 16.9739 101.376 16.2553 101.963 15.4085H102.045V16.6531H104.505V10.5068C104.519 7.65825 102.25 6.06714 99.3394 6.06714ZM99.0251 14.8567C98.1915 14.8567 97.0298 14.4589 97.0298 13.4966C97.0298 12.2648 98.4785 11.79 99.7358 11.79C100.856 11.79 101.389 12.021 102.059 12.3289C101.868 13.8045 100.501 14.8567 99.0251 14.8567ZM113.484 6.4136L110.56 13.3683H110.478L107.444 6.4136H104.697L109.248 16.1399L106.651 21.5419H109.316L116.327 6.4136H113.484ZM90.5245 16.6788H93.0801V0.639429H90.5245V16.6788Z" fill="white"/>
</svg>
