<svg width="32" height="34" viewBox="0 0 32 34" fill="none" xmlns="http://www.w3.org/2000/svg">
<path d="M0.64166 0.859352C0.245327 1.25713 0.0129929 1.87304 0.0129929 2.65576V31.039C0.0129929 31.8346 0.245327 32.4505 0.64166 32.8354L0.737328 32.9252L17.6703 17.0399V16.8474V16.6549L0.737328 0.769531L0.64166 0.859352Z" fill="url(#paint0_linear_1_1094)"/>
<path d="M23.3165 22.3393L17.6721 17.0398V16.8474V16.6549L23.3165 11.3555L23.4395 11.4196L30.1225 14.9868C32.0359 16.0005 32.0359 17.6686 30.1225 18.6951L23.4395 22.2623L23.3165 22.3393Z" fill="url(#paint1_linear_1_1094)"/>
<path d="M23.4387 22.2754L17.6714 16.8477L0.642776 32.8357C1.27144 33.4644 2.3101 33.5414 3.48543 32.9127L23.4387 22.2754Z" fill="url(#paint2_linear_1_1094)"/>
<path d="M23.4382 11.4326L3.47133 0.782482C2.29601 0.15374 1.25735 0.230728 0.628685 0.85947L17.6709 16.8475L23.4382 11.4326Z" fill="url(#paint3_linear_1_1094)"/>
<path opacity="0.12" d="M30.122 18.5157L23.3023 22.147L23.4253 22.2625L30.1083 18.6954C31.065 18.1821 31.5433 17.5149 31.5433 16.8477C31.475 17.4507 30.9966 18.0538 30.122 18.5157Z" fill="black"/>
<path opacity="0.25" d="M3.47134 0.963116L30.1214 15.1804C30.9824 15.6423 31.4744 16.2326 31.5564 16.8485C31.5564 16.1812 31.0781 15.5012 30.1214 15.0007L3.47134 0.783476C1.558 -0.23021 0 0.616667 0 2.6697V2.86217C0 0.796308 1.57167 -0.0505692 3.47134 0.963116Z" fill="white"/>
<defs>
<linearGradient id="paint0_linear_1_1094" x1="16.1665" y1="2.36038" x2="-5.32511" y2="25.2508" gradientUnits="userSpaceOnUse">
<stop stop-color="#00A0FF"/>
<stop offset="0.00657445" stop-color="#00A1FF"/>
<stop offset="0.2601" stop-color="#00BEFF"/>
<stop offset="0.5122" stop-color="#00D2FF"/>
<stop offset="0.7604" stop-color="#00DFFF"/>
<stop offset="1" stop-color="#00E3FF"/>
</linearGradient>
<linearGradient id="paint1_linear_1_1094" x1="32.6158" y1="16.8493" x2="-0.453601" y2="16.8493" gradientUnits="userSpaceOnUse">
<stop stop-color="#FFE000"/>
<stop offset="0.4087" stop-color="#FFBD00"/>
<stop offset="0.7754" stop-color="#FFA500"/>
<stop offset="1" stop-color="#FF9C00"/>
</linearGradient>
<linearGradient id="paint2_linear_1_1094" x1="20.3048" y1="19.794" x2="-8.83952" y2="50.8352" gradientUnits="userSpaceOnUse">
<stop stop-color="#FF3A44"/>
<stop offset="1" stop-color="#C31162"/>
</linearGradient>
<linearGradient id="paint3_linear_1_1094" x1="-3.65278" y1="-8.58924" x2="9.36146" y2="5.27186" gradientUnits="userSpaceOnUse">
<stop stop-color="#32A071"/>
<stop offset="0.0685" stop-color="#2DA771"/>
<stop offset="0.4762" stop-color="#15CF74"/>
<stop offset="0.8009" stop-color="#06E775"/>
<stop offset="1" stop-color="#00F076"/>
</linearGradient>
</defs>
</svg>
