<svg width="55" height="10" viewBox="0 0 55 10" fill="none" xmlns="http://www.w3.org/2000/svg">
<path d="M9.18091 5.3247C9.18091 6.40254 8.83924 7.26225 8.15591 7.89099C7.39057 8.64805 6.37925 9.03299 5.14925 9.03299C3.96025 9.03299 2.96258 8.64805 2.12892 7.87816C1.29525 7.10827 0.885254 6.14591 0.885254 5.01674C0.885254 3.87474 1.29525 2.92521 2.12892 2.15532C2.96258 1.38543 3.96025 1.00049 5.14925 1.00049C5.73692 1.00049 6.29725 1.10314 6.83025 1.32128C7.36325 1.53941 7.78691 1.8217 8.11491 2.18098L7.39058 2.86105C6.84391 2.25797 6.10591 1.95002 5.14925 1.95002C4.28825 1.95002 3.53659 2.23231 2.90792 2.80973C2.27926 3.37431 1.96492 4.11854 1.96492 5.02957C1.96492 5.94061 2.27926 6.68483 2.90792 7.24942C3.53659 7.814 4.28825 8.10913 5.14925 8.10913C6.06491 8.10913 6.83025 7.82684 7.44525 7.24942C7.84158 6.87731 8.07391 6.35122 8.12858 5.68398H5.14925V4.74728H9.12624C9.15358 4.95258 9.18091 5.14506 9.18091 5.3247Z" fill="white" stroke="white" stroke-width="0.256629" stroke-miterlimit="10"/>
<path d="M15.481 2.11676H11.7499V4.55474H15.112V5.47861H11.7499V7.91658H15.481V8.86611H10.6976V1.16724H15.481V2.11676V2.11676Z" fill="white" stroke="white" stroke-width="0.256629" stroke-miterlimit="10"/>
<path d="M19.9224 8.86611H18.8701V2.11676H16.5741V1.16724H22.2047V2.11676H19.9087V8.86611H19.9224Z" fill="white" stroke="white" stroke-width="0.256629" stroke-miterlimit="10"/>
<path d="M26.2908 8.86611V1.16724H27.3431V8.86611H26.2908Z" fill="white" stroke="white" stroke-width="0.256629" stroke-miterlimit="10"/>
<path d="M32.0181 8.86611H30.9657V2.11676H28.6697V1.16724H34.3004V2.11676H32.0044V8.86611H32.0181Z" fill="white" stroke="white" stroke-width="0.256629" stroke-miterlimit="10"/>
<path d="M44.9733 7.86484C44.167 8.64756 43.1694 9.03251 41.9667 9.03251C40.7641 9.03251 39.7664 8.64756 38.9601 7.86484C38.1537 7.08212 37.7574 6.13259 37.7574 5.01625C37.7574 3.89991 38.1537 2.93755 38.9601 2.16767C39.7664 1.38494 40.7641 1 41.9667 1C43.1557 1 44.1533 1.38494 44.9733 2.16767C45.7797 2.95039 46.1897 3.89991 46.1897 5.01625C46.176 6.14542 45.7797 7.09495 44.9733 7.86484ZM39.7391 7.22327C40.3404 7.80068 41.092 8.08298 41.9667 8.08298C42.8414 8.08298 43.593 7.80068 44.1943 7.22327C44.7957 6.64585 45.11 5.91446 45.11 5.01625C45.11 4.11805 44.8093 3.38665 44.1943 2.80924C43.593 2.23182 42.8414 1.9367 41.9667 1.9367C41.092 1.9367 40.3404 2.21899 39.7391 2.79641C39.1377 3.38666 38.8234 4.11805 38.8234 5.01625C38.8234 5.91446 39.1377 6.64585 39.7391 7.22327Z" fill="white" stroke="white" stroke-width="0.256629" stroke-miterlimit="10"/>
<path d="M47.6663 8.86611V1.16724H48.9509L52.9415 7.15953H52.9825L52.9415 5.67108V1.16724H53.9938V8.86611H52.9005L48.7323 2.59153H48.6913L48.7323 4.07998V8.86611H47.6663Z" fill="white" stroke="white" stroke-width="0.256629" stroke-miterlimit="10"/>
</svg>
