<svg width="163" height="32" viewBox="0 0 163 32" fill="none" xmlns="http://www.w3.org/2000/svg">
<path d="M17.5332 18.8721H7.29787L4.83101 25.6986H0.503174L10.1975 0.465088H14.6985L24.3928 25.6986H19.9784L17.5332 18.8721ZM8.35819 15.723H16.4729L12.4696 4.65035H12.3614L8.35819 15.723Z" fill="white"/>
<path d="M45.3608 16.4958C45.3608 22.2048 42.0934 25.8821 37.1813 25.8821C34.3899 25.8821 32.1827 24.7038 31.0142 22.6721H30.9277V31.774H26.9028V7.29223H30.7978V10.3601H30.8628C31.988 8.38934 34.3683 7.10938 37.0948 7.10938C42.0934 7.10938 45.3608 10.7867 45.3608 16.4958ZM41.2278 16.4958C41.2278 12.7778 39.1721 10.3194 36.0561 10.3194C32.9834 10.3194 30.906 12.8184 30.906 16.4958C30.906 20.1934 32.9834 22.6924 36.0561 22.6924C39.1721 22.6924 41.2278 20.2544 41.2278 16.4958Z" fill="white"/>
<path d="M66.9145 16.4958C66.9145 22.2048 63.6469 25.8821 58.7348 25.8821C55.9433 25.8821 53.7361 24.7038 52.5676 22.6721H52.4811V31.774H48.4778V7.29223H52.3729V10.3601H52.4378C53.563 8.38934 55.9433 7.10938 58.6699 7.10938C63.6469 7.10938 66.9145 10.7867 66.9145 16.4958ZM62.7814 16.4958C62.7814 12.7778 60.7256 10.3194 57.6096 10.3194C54.5368 10.3194 52.4594 12.8184 52.4594 16.4958C52.4594 20.1934 54.5368 22.6924 57.6096 22.6924C60.7473 22.6924 62.7814 20.2544 62.7814 16.4958Z" fill="white"/>
<path d="M81.1747 18.6691C81.4776 21.1681 84.0527 22.8138 87.6015 22.8138C90.9989 22.8138 93.4225 21.1681 93.4225 18.9129C93.4225 16.9625 91.951 15.7841 88.4671 14.9715L84.9832 14.1791C80.0495 13.0617 77.7557 10.8878 77.7557 7.37296C77.7557 3.02515 81.8022 0.0385742 87.5366 0.0385742C93.2061 0.0385742 97.1012 3.02515 97.231 7.37296H93.1628C92.9248 4.85367 90.696 3.3299 87.4717 3.3299C84.2475 3.3299 82.0186 4.87399 82.0186 7.10884C82.0186 8.89672 83.4252 9.93288 86.8874 10.7456L89.852 11.4363C95.37 12.6553 97.6638 14.748 97.6638 18.4253C97.6638 23.1388 93.6605 26.1051 87.2986 26.1051C81.3478 26.1051 77.3229 23.2201 77.0632 18.6488H81.1747V18.6691Z" fill="white"/>
<path d="M106.361 2.9436V7.29141H110.083V10.278H106.361V20.4161C106.361 22.0008 107.097 22.7322 108.742 22.7322C109.153 22.7322 109.802 22.6712 110.062 22.6509V25.6172C109.607 25.7188 108.72 25.8 107.833 25.8C103.873 25.8 102.315 24.3982 102.315 20.8427V10.2983H99.4585V7.31173H102.315V2.9436H106.361Z" fill="white"/>
<path d="M112.226 16.4948C112.226 10.7046 115.861 7.06787 121.509 7.06787C127.179 7.06787 130.792 10.7046 130.792 16.4948C130.792 22.3054 127.2 25.9218 121.509 25.9218C115.84 25.9218 112.226 22.3054 112.226 16.4948ZM126.724 16.4948C126.724 12.5331 124.777 10.1763 121.531 10.1763C118.285 10.1763 116.337 12.5331 116.337 16.4948C116.337 20.4769 118.263 22.8134 121.531 22.8134C124.798 22.8134 126.724 20.4769 126.724 16.4948Z" fill="white"/>
<path d="M134.146 7.29179H137.977V10.4206H138.063C138.669 8.34826 140.465 7.08862 142.781 7.08862C143.365 7.08862 143.841 7.16989 144.166 7.23084V10.766C143.841 10.6441 143.148 10.5425 142.369 10.5425C139.773 10.5425 138.171 12.1881 138.171 14.7684V25.6784H134.146V7.29179V7.29179Z" fill="white"/>
<path d="M162.688 20.2941C162.147 23.626 158.685 25.9218 154.249 25.9218C148.558 25.9218 145.009 22.3461 145.009 16.5761C145.009 10.8062 148.558 7.06787 154.076 7.06787C159.486 7.06787 162.905 10.5624 162.905 16.1495V17.4497H149.077V17.6732C149.077 20.8223 151.176 22.8743 154.357 22.8743C156.586 22.8743 158.339 21.8788 158.88 20.2941H162.688V20.2941ZM149.099 14.7882H158.902C158.815 11.9642 156.889 10.1154 154.098 10.1154C151.328 10.1357 149.315 12.0252 149.099 14.7882Z" fill="white"/>
</svg>
