<svg width="85" height="14" viewBox="0 0 85 14" fill="none" xmlns="http://www.w3.org/2000/svg">
<path d="M13.6125 7.53746C13.6125 9.24407 13.0716 10.6053 11.9896 11.6008C10.7778 12.7995 9.17651 13.409 7.22898 13.409C5.34637 13.409 3.7667 12.7995 2.44671 11.5805C1.12672 10.3615 0.477539 8.83774 0.477539 7.04985C0.477539 5.24165 1.12672 3.7382 2.44671 2.51919C3.7667 1.30018 5.34637 0.690674 7.22898 0.690674C8.15947 0.690674 9.04668 0.853209 9.89061 1.1986C10.7345 1.54398 11.4053 1.99095 11.9247 2.55983L10.7778 3.63662C9.91225 2.68173 8.74373 2.19412 7.22898 2.19412C5.86571 2.19412 4.67556 2.64109 3.68015 3.55535C2.68475 4.44929 2.18704 5.62767 2.18704 7.07017C2.18704 8.51267 2.68475 9.69104 3.68015 10.585C4.67556 11.4789 5.86571 11.9462 7.22898 11.9462C8.67881 11.9462 9.89061 11.4992 10.8644 10.585C11.4919 9.9958 11.8598 9.16281 11.9463 8.10633H7.22898V6.6232H13.526C13.5693 6.94827 13.6125 7.25302 13.6125 7.53746Z" fill="white" stroke="white" stroke-width="0.406337" stroke-miterlimit="10"/>
<path d="M23.5883 2.45828H17.6807V6.31848H23.0041V7.78129H17.6807V11.6415H23.5883V13.1449H16.0144V0.954834H23.5883V2.45828V2.45828Z" fill="white" stroke="white" stroke-width="0.406337" stroke-miterlimit="10"/>
<path d="M30.6215 13.1449H28.9552V2.45828H25.3198V0.954834H34.2352V2.45828H30.5998V13.1449H30.6215Z" fill="white" stroke="white" stroke-width="0.406337" stroke-miterlimit="10"/>
<path d="M40.7046 13.1449V0.954834H42.3707V13.1449H40.7046Z" fill="white" stroke="white" stroke-width="0.406337" stroke-miterlimit="10"/>
<path d="M49.7726 13.1449H48.1064V2.45828H44.4709V0.954834H53.3863V2.45828H49.7509V13.1449H49.7726Z" fill="white" stroke="white" stroke-width="0.406337" stroke-miterlimit="10"/>
<path d="M70.2858 11.5597C69.0091 12.799 67.4294 13.4085 65.5252 13.4085C63.6209 13.4085 62.0413 12.799 60.7646 11.5597C59.4879 10.3204 58.8604 8.81693 58.8604 7.04936C58.8604 5.2818 59.4879 3.75803 60.7646 2.53902C62.0413 1.29969 63.6209 0.690186 65.5252 0.690186C67.4078 0.690186 68.9874 1.29969 70.2858 2.53902C71.5625 3.77835 72.2116 5.2818 72.2116 7.04936C72.19 8.83725 71.5625 10.3407 70.2858 11.5597ZM61.998 10.5439C62.9501 11.4581 64.1403 11.9051 65.5252 11.9051C66.9101 11.9051 68.1002 11.4581 69.0523 10.5439C70.0044 9.62961 70.5021 8.47154 70.5021 7.04936C70.5021 5.62718 70.0261 4.46912 69.0523 3.55486C68.1002 2.6406 66.9101 2.17332 65.5252 2.17332C64.1403 2.17332 62.9501 2.62029 61.998 3.53455C61.0459 4.46912 60.5482 5.62718 60.5482 7.04936C60.5482 8.47154 61.0459 9.62961 61.998 10.5439Z" fill="white" stroke="white" stroke-width="0.406337" stroke-miterlimit="10"/>
<path d="M74.5493 13.1449V0.954834H76.5834L82.9019 10.4428H82.9668L82.9019 8.08604V0.954834H84.5681V13.1449H82.837L76.2371 3.21H76.1722L76.2371 5.56676V13.1449H74.5493Z" fill="white" stroke="white" stroke-width="0.406337" stroke-miterlimit="10"/>
</svg>
