<svg width="51" height="53" viewBox="0 0 51 53" fill="none" xmlns="http://www.w3.org/2000/svg">
<path d="M1.59013 1.05091C0.962595 1.68073 0.594727 2.65594 0.594727 3.89527V48.8362C0.594727 50.0959 0.962595 51.0711 1.59013 51.6806L1.74161 51.8228L28.5527 26.6705V26.3657V26.061L1.74161 0.908691L1.59013 1.05091Z" fill="url(#paint0_linear_1_1094)"/>
<path d="M37.4923 35.0612L28.5552 26.6703V26.3656V26.0608L37.4923 17.6699L37.687 17.7715L48.2687 23.4196C51.2982 25.0247 51.2982 27.6659 48.2687 29.2912L37.687 34.9393L37.4923 35.0612Z" fill="url(#paint1_linear_1_1094)"/>
<path d="M37.6859 34.96L28.5542 26.366L1.5918 51.6808C2.5872 52.6763 4.23178 52.7982 6.09274 51.8027L37.6859 34.96Z" fill="url(#paint2_linear_1_1094)"/>
<path d="M37.686 17.7922L6.07125 0.929208C4.21029 -0.0663175 2.56571 0.0555835 1.57031 1.05111L28.5543 26.3659L37.686 17.7922Z" fill="url(#paint3_linear_1_1094)"/>
<defs>
<linearGradient id="paint0_linear_1_1094" x1="26.1715" y1="3.42758" x2="-7.85742" y2="39.6714" gradientUnits="userSpaceOnUse">
<stop stop-color="#00A0FF"/>
<stop offset="0.00657445" stop-color="#00A1FF"/>
<stop offset="0.2601" stop-color="#00BEFF"/>
<stop offset="0.5122" stop-color="#00D2FF"/>
<stop offset="0.7604" stop-color="#00DFFF"/>
<stop offset="1" stop-color="#00E3FF"/>
</linearGradient>
<linearGradient id="paint1_linear_1_1094" x1="52.2164" y1="26.3686" x2="-0.144356" y2="26.3686" gradientUnits="userSpaceOnUse">
<stop stop-color="#FFE000"/>
<stop offset="0.4087" stop-color="#FFBD00"/>
<stop offset="0.7754" stop-color="#FFA500"/>
<stop offset="1" stop-color="#FF9C00"/>
</linearGradient>
<linearGradient id="paint2_linear_1_1094" x1="32.7238" y1="31.0311" x2="-13.4221" y2="80.1804" gradientUnits="userSpaceOnUse">
<stop stop-color="#FF3A44"/>
<stop offset="1" stop-color="#C31162"/>
</linearGradient>
<linearGradient id="paint3_linear_1_1094" x1="-5.20879" y1="-13.9096" x2="15.3974" y2="8.03752" gradientUnits="userSpaceOnUse">
<stop stop-color="#32A071"/>
<stop offset="0.0685" stop-color="#2DA771"/>
<stop offset="0.4762" stop-color="#15CF74"/>
<stop offset="0.8009" stop-color="#06E775"/>
<stop offset="1" stop-color="#00F076"/>
</linearGradient>
</defs>
</svg>
