<svg width="185" height="35" viewBox="0 0 185 35" fill="none" xmlns="http://www.w3.org/2000/svg">
<path d="M59.4503 9.92124C54.3651 9.92124 50.2104 13.558 50.2104 18.5559C50.2104 23.5335 54.3651 27.1906 59.4503 27.1906C64.5355 27.1906 68.6903 23.5335 68.6903 18.5559C68.6903 13.558 64.5355 9.92124 59.4503 9.92124ZM59.4503 23.7977C56.6589 23.7977 54.2569 21.6441 54.2569 18.5559C54.2569 15.4474 56.6589 13.3142 59.4503 13.3142C62.2418 13.3142 64.6437 15.4474 64.6437 18.5559C64.6437 21.6441 62.2201 23.7977 59.4503 23.7977ZM39.2826 9.92124C34.1974 9.92124 30.0427 13.558 30.0427 18.5559C30.0427 23.5335 34.1974 27.1906 39.2826 27.1906C44.3678 27.1906 48.5225 23.5335 48.5225 18.5559C48.5225 13.558 44.3678 9.92124 39.2826 9.92124ZM39.2826 23.7977C36.4911 23.7977 34.0892 21.6441 34.0892 18.5559C34.0892 15.4474 36.4911 13.3142 39.2826 13.3142C42.0741 13.3142 44.476 15.4474 44.476 18.5559C44.476 21.6441 42.0741 23.7977 39.2826 23.7977ZM15.3064 12.5827V16.2398H24.6545C24.3732 18.2918 23.6375 19.8156 22.5339 20.8517C21.1706 22.1317 19.0499 23.5335 15.328 23.5335C9.57198 23.5335 5.07102 19.1857 5.07102 13.7814C5.07102 8.37716 9.57198 4.02935 15.328 4.02935C18.4224 4.02935 20.6945 5.16709 22.3607 6.65023L25.1089 4.06999C22.7719 1.97735 19.6775 0.372314 15.3064 0.372314C7.4297 0.372314 0.808105 6.38611 0.808105 13.8018C0.808105 21.1971 7.4297 27.2312 15.3064 27.2312C19.5693 27.2312 22.7719 25.9309 25.282 23.4726C27.8571 21.0549 28.6578 17.6417 28.6578 14.8989C28.6578 14.0456 28.5928 13.2532 28.4414 12.6031H15.3064V12.5827ZM113.354 15.4271C112.596 13.497 110.259 9.92124 105.477 9.92124C100.738 9.92124 96.7996 13.4157 96.7996 18.5559C96.7996 23.3913 100.695 27.1906 105.931 27.1906C110.151 27.1906 112.596 24.7729 113.592 23.371L110.454 21.4003C109.415 22.8428 107.987 23.7977 105.931 23.7977C103.876 23.7977 102.404 22.9037 101.474 21.1768L113.786 16.4023L113.354 15.4271ZM100.803 18.3121C100.695 14.9801 103.551 13.2735 105.607 13.2735C107.208 13.2735 108.571 14.0252 109.026 15.102L100.803 18.3121ZM90.8055 26.6827H94.8521V1.28657H90.8055V26.6827ZM84.1839 11.8513H84.0325C83.1236 10.8355 81.3925 9.92124 79.1853 9.92124C74.5761 9.92124 70.3565 13.7205 70.3565 18.5965C70.3565 23.432 74.5761 27.2109 79.1853 27.2109C81.3708 27.2109 83.1236 26.2966 84.0325 25.2402H84.1623V26.4795C84.1623 29.7911 82.2797 31.5587 79.2502 31.5587C76.7833 31.5587 75.247 29.8927 74.6194 28.4909L71.0922 29.8724C72.1093 32.1682 74.7925 34.9719 79.2502 34.9719C83.9892 34.9719 87.9924 32.3511 87.9924 25.9716V10.4495H84.1623V11.8513H84.1839ZM79.5315 23.7977C76.74 23.7977 74.403 21.6034 74.403 18.5965C74.403 15.549 76.74 13.3345 79.5315 13.3345C82.2797 13.3345 84.4436 15.5693 84.4436 18.5965C84.4653 21.6034 82.3013 23.7977 79.5315 23.7977ZM132.31 1.28657H122.637V26.6827H126.683V17.0525H132.331C136.81 17.0525 141.203 14.0049 141.203 9.16952C141.203 4.3341 136.767 1.28657 132.31 1.28657ZM132.396 13.5173H126.662V4.80139H132.396C135.426 4.80139 137.135 7.15815 137.135 9.1492C137.135 11.1403 135.426 13.5173 132.396 13.5173ZM157.368 9.88061C154.446 9.88061 151.417 11.0996 150.162 13.7611L153.754 15.163C154.511 13.7611 155.94 13.2938 157.433 13.2938C159.532 13.2938 161.652 14.4722 161.674 16.5649V16.829C160.938 16.443 159.38 15.8538 157.454 15.8538C153.581 15.8538 149.664 17.8448 149.664 21.5628C149.664 24.9557 152.823 27.1499 156.372 27.1499C159.077 27.1499 160.592 26.0122 161.522 24.6713H161.652V26.642H165.547V16.9102C165.569 12.3999 161.977 9.88061 157.368 9.88061ZM156.87 23.7977C155.55 23.7977 153.711 23.1678 153.711 21.6441C153.711 19.6937 156.004 18.9419 157.995 18.9419C159.77 18.9419 160.614 19.3076 161.674 19.7952C161.371 22.1317 159.207 23.7977 156.87 23.7977ZM179.764 10.4292L175.133 21.4409H175.004L170.2 10.4292H165.85L173.056 25.8293L168.945 34.3827H173.164L184.265 10.4292H179.764ZM143.41 26.6827H147.457V1.28657H143.41V26.6827Z" fill="white"/>
</svg>
