<svg width="150" height="14" viewBox="0 0 150 14" fill="none" xmlns="http://www.w3.org/2000/svg">
<path d="M4.86068 1.46948C8.69089 1.46948 10.9414 3.68403 10.9414 7.48329C10.9414 11.3638 8.71253 13.5784 4.86068 13.5784H0.186523V1.46948H4.86068ZM2.19901 11.8717H4.62264C7.32759 11.8717 8.88564 10.287 8.88564 7.5036C8.88564 4.76082 7.30595 3.1761 4.62264 3.1761H2.19901V11.8717Z" fill="white"/>
<path d="M13.1921 9.00712C13.1921 6.06115 14.9449 4.25293 17.7797 4.25293C20.6144 4.25293 22.3672 6.04083 22.3672 9.00712C22.3672 11.9734 20.6144 13.7613 17.7797 13.7613C14.9449 13.7613 13.1921 11.9734 13.1921 9.00712ZM20.398 9.00712C20.398 7.01605 19.4459 5.85798 17.7797 5.85798C16.1134 5.85798 15.1613 7.01605 15.1613 9.00712C15.1613 10.9982 16.0918 12.1563 17.7797 12.1563C19.4675 12.1563 20.398 10.9982 20.398 9.00712Z" fill="white"/>
<path d="M34.5932 13.5981H32.6024L30.59 6.85295H30.4385L28.4261 13.5981H26.4569L23.7737 4.45557H25.7212L27.474 11.4446H27.6254L29.6379 4.45557H31.4772L33.4896 11.4446H33.6411L35.3722 4.45557H37.2981L34.5932 13.5981Z" fill="white"/>
<path d="M39.5273 4.43548H41.3883V5.89831H41.5398C42.0159 4.88246 42.9897 4.27295 44.4395 4.27295C46.6035 4.27295 47.8153 5.49197 47.8153 7.66588V13.5984H45.8894V8.13317C45.8894 6.67035 45.2185 5.93894 43.7903 5.93894C42.3621 5.93894 41.4533 6.83289 41.4533 8.25507V13.5984H39.5273V4.43548V4.43548Z" fill="white"/>
<path d="M50.8662 0.880127H52.7922V13.5985H50.8662V0.880127Z" fill="white"/>
<path d="M55.4758 9.00712C55.4758 6.06115 57.2286 4.25293 60.0632 4.25293C62.8979 4.25293 64.6506 6.04083 64.6506 9.00712C64.6506 11.9734 62.8979 13.7613 60.0632 13.7613C57.2069 13.7613 55.4758 11.9734 55.4758 9.00712ZM62.6815 9.00712C62.6815 7.01605 61.7294 5.85798 60.0632 5.85798C58.3971 5.85798 57.445 7.01605 57.445 9.00712C57.445 10.9982 58.3754 12.1563 60.0632 12.1563C61.7294 12.1563 62.6815 10.9982 62.6815 9.00712Z" fill="white"/>
<path d="M66.6841 10.9979C66.6841 9.35221 67.9824 8.39731 70.2978 8.2754L72.9378 8.13318V7.34082C72.9378 6.3656 72.267 5.83736 70.947 5.83736C69.865 5.83736 69.1293 6.20307 68.9129 6.85321H67.0519C67.2467 5.2888 68.8264 4.27295 71.0335 4.27295C73.4787 4.27295 74.8636 5.4107 74.8636 7.34082V13.5985H73.0027V12.3185H72.8512C72.267 13.2328 71.2066 13.761 69.9299 13.761C68.0473 13.7407 66.6841 12.6842 66.6841 10.9979ZM72.9594 10.2258V9.45379L70.5791 9.59601C69.2375 9.67728 68.6316 10.1039 68.6316 10.9166C68.6316 11.7496 69.389 12.2169 70.4276 12.2169C71.8774 12.2169 72.9594 11.3636 72.9594 10.2258Z" fill="white"/>
<path d="M77.3948 9.00689C77.3948 6.12189 78.9744 4.29337 81.4413 4.29337C82.7829 4.29337 83.9082 4.88256 84.4275 5.89841H84.579V0.880127H86.5049V13.5985H84.6439V12.156H84.4924C83.9082 13.1515 82.7829 13.7611 81.4413 13.7611C78.9528 13.7407 77.3948 11.9122 77.3948 9.00689ZM79.3856 9.00689C79.3856 10.9573 80.3593 12.1154 81.9823 12.1154C83.6052 12.1154 84.6006 10.937 84.6006 9.00689C84.6006 7.0971 83.5836 5.89841 81.9823 5.89841C80.3593 5.91872 79.3856 7.0971 79.3856 9.00689Z" fill="white"/>
<path d="M94.4463 9.00712C94.4463 6.06115 96.1991 4.25293 99.0338 4.25293C101.869 4.25293 103.621 6.04083 103.621 9.00712C103.621 11.9734 101.869 13.7613 99.0338 13.7613C96.1991 13.7613 94.4463 11.9734 94.4463 9.00712ZM101.652 9.00712C101.652 7.01605 100.7 5.85798 99.0338 5.85798C97.3676 5.85798 96.4155 7.01605 96.4155 9.00712C96.4155 10.9982 97.3459 12.1563 99.0338 12.1563C100.7 12.1563 101.652 10.9982 101.652 9.00712Z" fill="white"/>
<path d="M106.218 4.43548H108.079V5.89831H108.231C108.707 4.88246 109.681 4.27295 111.13 4.27295C113.294 4.27295 114.506 5.49197 114.506 7.66588V13.5984H112.58V8.13317C112.58 6.67035 111.909 5.93894 110.481 5.93894C109.053 5.93894 108.144 6.83289 108.144 8.25507V13.5984H106.218V4.43548Z" fill="white"/>
<path d="M125.369 2.15991V4.47602H127.49V5.99978H125.369V10.7133C125.369 11.6681 125.781 12.0948 126.754 12.0948C127.057 12.0948 127.209 12.0745 127.49 12.0542V13.5576C127.187 13.5982 126.819 13.6592 126.451 13.6592C124.309 13.6592 123.465 12.9481 123.465 11.1805V6.02009H121.929V4.49634H123.465V2.15991H125.369Z" fill="white"/>
<path d="M130.087 0.880127H131.991V5.91871H132.142C132.619 4.90287 133.636 4.27304 135.107 4.27304C137.184 4.27304 138.461 5.51237 138.461 7.68628V13.5985H136.535V8.13325C136.535 6.67043 135.821 5.93903 134.458 5.93903C132.878 5.93903 132.013 6.8736 132.013 8.25515V13.5985H130.087V0.880127Z" fill="white"/>
<path d="M149.691 11.1198C149.259 12.7655 147.701 13.761 145.472 13.761C142.68 13.761 140.971 11.9731 140.971 9.04745C140.971 6.1218 142.724 4.27295 145.472 4.27295C148.177 4.27295 149.821 6.02021 149.821 8.88491V9.51474H142.94V9.61633C143.005 11.2214 144 12.2372 145.537 12.2372C146.705 12.2372 147.506 11.8512 147.852 11.1198H149.691ZM142.94 8.17382H147.852C147.809 6.73131 146.878 5.79673 145.45 5.79673C144.022 5.79673 143.048 6.75163 142.94 8.17382Z" fill="white"/>
</svg>
