<svg width="39" height="45" viewBox="0 0 39 45" fill="none" xmlns="http://www.w3.org/2000/svg">
<path d="M32.6002 23.9758C32.5353 18.3887 37.469 15.6662 37.7071 15.5443C34.9156 11.7247 30.5877 11.1965 29.073 11.1559C25.4376 10.7902 21.9103 13.1876 20.071 13.1876C18.1884 13.1876 15.332 11.1762 12.2592 11.2371C8.29921 11.2981 4.59888 13.4517 2.58642 16.7836C-1.58997 23.5898 1.5261 33.5857 5.52937 39.0915C7.54183 41.7937 9.87888 44.8005 12.9517 44.6786C15.9595 44.5567 17.0848 42.8908 20.6985 42.8908C24.2907 42.8908 25.3294 44.6786 28.4671 44.6177C31.6913 44.5771 33.7254 41.9156 35.6513 39.1931C37.9667 36.1049 38.8972 33.0574 38.9405 32.9152C38.8323 32.8949 32.6651 30.6803 32.6002 23.9758Z" fill="white"/>
<path d="M26.6926 7.53935C28.3156 5.64987 29.4192 3.06962 29.0946 0.44873C26.7576 0.550315 23.8363 1.9725 22.1484 3.82135C20.6553 5.4467 19.3353 8.12854 19.6815 10.6478C22.2999 10.8307 25.0048 9.40851 26.6926 7.53935Z" fill="white"/>
</svg>
